<?xml version="1.0" standalone="no"?><!DOCTYPE svg PUBLIC "-//W3C//DTD SVG 1.1//EN" "http://www.w3.org/Graphics/SVG/1.1/DTD/svg11.dtd"><svg class="icon" width="200px" height="199.61px" viewBox="0 0 1026 1024" version="1.1" xmlns="http://www.w3.org/2000/svg"><path d="M987.40496 572.8c1.6-9.6-4.8-20.8-16-22.4-3.2 0-44.8-8-99.2-9.6-11.2-59.2-38.4-118.4-76.8-169.6 1.6-3.2 3.2-4.8 3.2-8 0-24-1.6-147.2-49.6-176-64-38.4-164.8 16-196.8 35.2-17.6-3.2-33.6-3.2-52.8-3.2-19.2 0-38.4 1.6-57.6 4.8-30.4-19.2-132.8-76.8-198.4-36.8-46.4 28.8-49.6 152-49.6 176 0 3.2 1.6 6.4 3.2 8-40 51.2-68.8 110.4-81.6 169.6-52.8 1.6-96 9.6-99.2 9.6-9.6 1.6-17.6 11.2-16 22.4 1.6 9.6 11.2 17.6 22.4 16 0 0 38.4-6.4 86.4-9.6-1.6 9.6-1.6 19.2-1.6 30.4 0 9.6 0 19.2 1.6 28.8-49.6 16-88 41.6-91.2 43.2-9.6 6.4-11.2 17.6-6.4 25.6 3.2 6.4 9.6 8 16 8 3.2 0 6.4-1.6 9.6-3.2 0 0 33.6-20.8 76.8-36.8 33.6 142.4 179.2 233.6 384 233.6 201.6 0 340.8-89.6 372.8-233.6 43.2 16 75.2 36.8 76.8 36.8 3.2 1.6 6.4 3.2 9.6 3.2 6.4 0 12.8-3.2 16-8 6.4-9.6 3.2-20.8-6.4-25.6-3.2-1.6-41.6-25.6-91.2-43.2 1.6-9.6 1.6-19.2 1.6-28.8 0-9.6 0-19.2-1.6-30.4 48 1.6 84.8 9.6 86.4 9.6 14.4 1.6 24-4.8 25.6-16zM785.80496 766.4c12.8-16 25.6-32 33.6-51.2-8 19.2-19.2 36.8-33.6 51.2z m41.6-70.4c3.2-9.6 6.4-20.8 9.6-32-3.2 11.2-4.8 22.4-9.6 32z m14.4-86.4c0 6.4 0 11.2-1.6 17.6 1.6-6.4 1.6-11.2 1.6-17.6z" fill="#98CCF6" /><path d="M253.00496 337.6s0-136 40-160c64-40 185.6 41.6 185.6 41.6" fill="#FFFFFF" /><path d="M253.00496 356.8c-11.2 0-19.2-8-19.2-19.2 0-24 1.6-147.2 49.6-176 72-44.8 192 32 206.4 41.6 8 6.4 11.2 17.6 4.8 25.6-6.4 8-17.6 11.2-25.6 4.8-30.4-20.8-121.6-67.2-164.8-40-19.2 11.2-32 83.2-32 144 0 9.6-9.6 19.2-19.2 19.2z" fill="#05498F" /><path d="M817.80496 337.6s0-136-40-160c-64-40-185.6 41.6-185.6 41.6" fill="#FFFFFF" /><path d="M817.80496 356.8c-11.2 0-19.2-8-19.2-19.2 0-60.8-12.8-132.8-32-144-44.8-27.2-134.4 20.8-164.8 40-8 6.4-20.8 3.2-25.6-4.8-6.4-8-3.2-20.8 4.8-25.6 12.8-9.6 134.4-84.8 206.4-41.6 46.4 28.8 49.6 152 49.6 176 0 9.6-8 19.2-19.2 19.2z" fill="#05498F" /><path d="M880.20496 584c0 169.6-145.6 262.4-342.4 262.4s-353.6-92.8-353.6-262.4c0-100.8 56-206.4 140.8-275.2 59.2-48 132.8-78.4 212.8-78.4 196.8 0 342.4 182.4 342.4 353.6z" fill="#FFFFFF" /><path d="M539.40496 230.4C734.60496 230.4 881.80496 414.4 881.80496 584c0 169.6-145.6 262.4-342.4 262.4-195.2 0-353.6-92.8-353.6-262.4 0-100.8 56-206.4 140.8-275.2 59.2-48 132.8-78.4 212.8-78.4m0-38.4c-84.8 0-166.4 30.4-236.8 86.4-96 76.8-155.2 193.6-155.2 304 0 179.2 156.8 300.8 392 300.8 230.4 0 379.2-118.4 379.2-300.8 0-184-156.8-390.4-379.2-390.4z" fill="#05498F" /><path d="MNaN NaNaNaN NaN NaN 1 0 NaN NaN NaN NaN NaN 1 0 NaN NaNZ" fill="#05498F" /><path d="M771.40496 435.2c-6.4 0-12.8-3.2-16-8-36.8-54.4-96-99.2-164.8-124.8-9.6-3.2-14.4-14.4-11.2-24 3.2-9.6 14.4-14.4 24-11.2 76.8 27.2 142.4 76.8 184 139.2 6.4 8 3.2 20.8-4.8 25.6-3.2 1.6-8 3.2-11.2 3.2z" fill="#05498F" /><path d="M550.60496 499.2H513.80496c-24 0-38.4 25.6-27.2 46.4l19.2 19.2c12.8 12.8 40 12.8 54.4 0l19.2-19.2c11.2-19.2-4.8-46.4-28.8-46.4z" fill="#05498F" /><path d="M478.60496 651.2c-41.6 0-75.2-33.6-75.2-75.2 0-11.2 8-19.2 19.2-19.2s19.2 8 19.2 19.2c0 20.8 16 36.8 36.8 36.8s36.8-16 36.8-36.8c0-11.2 8-19.2 19.2-19.2s19.2 8 19.2 19.2c0 41.6-33.6 75.2-75.2 75.2z" fill="#05498F" /><path d="M590.60496 651.2c-41.6 0-75.2-33.6-75.2-75.2 0-11.2 8-19.2 19.2-19.2s19.2 8 19.2 19.2c0 20.8 16 36.8 36.8 36.8 20.8 0 36.8-16 36.8-36.8 0-11.2 8-19.2 19.2-19.2s19.2 8 19.2 19.2c0 41.6-33.6 75.2-75.2 75.2z" fill="#05498F" /><path d="M272.20496 563.2h-4.8c-83.2-22.4-203.2 0-204.8 0-9.6 1.6-20.8-4.8-22.4-16-1.6-9.6 4.8-20.8 16-22.4 4.8-1.6 129.6-24 220.8 0 9.6 3.2 16 12.8 12.8 22.4-1.6 11.2-9.6 16-17.6 16zM67.40496 689.6c-6.4 0-12.8-3.2-16-8-6.4-9.6-3.2-20.8 6.4-25.6 4.8-3.2 123.2-78.4 219.2-52.8 9.6 3.2 16 12.8 12.8 22.4-3.2 9.6-12.8 16-22.4 12.8-80-20.8-187.2 48-188.8 48-4.8 1.6-8 3.2-11.2 3.2zM793.80496 563.2c-8 0-16-6.4-17.6-14.4-3.2-9.6 3.2-20.8 12.8-22.4 91.2-24 216-1.6 220.8 0 9.6 1.6 17.6 11.2 16 22.4-1.6 9.6-11.2 17.6-22.4 16-1.6 0-121.6-22.4-204.8 0-1.6-1.6-3.2-1.6-4.8-1.6zM998.60496 689.6c-3.2 0-6.4-1.6-9.6-3.2-1.6 0-110.4-68.8-188.8-48-9.6 3.2-20.8-3.2-22.4-12.8-3.2-9.6 3.2-20.8 12.8-22.4 96-25.6 214.4 49.6 219.2 52.8 9.6 6.4 11.2 17.6 6.4 25.6-6.4 4.8-11.2 8-17.6 8z" fill="#05498F" /></svg>