<?xml version="1.0" standalone="no"?><!DOCTYPE svg PUBLIC "-//W3C//DTD SVG 1.1//EN" "http://www.w3.org/Graphics/SVG/1.1/DTD/svg11.dtd"><svg height="178" legacy-metrics="false" node-id="1" sillyvg="true" template-height="178" template-width="178" version="1.1" viewBox="0 0 178 178" width="178" xmlns="http://www.w3.org/2000/svg" xmlns:xlink="http://www.w3.org/1999/xlink"><defs node-id="21"></defs><g node-id="47"><path d="M 158.24 88.17 C 158.24 77.52 152.87 67.71 143.85 59.87 L 143.85 59.80 C 143.85 49.72 133.41 40.88 117.74 35.92 C 101.24 20.65 75.76 20.65 59.26 35.92 C 43.58 40.92 33.15 49.72 33.15 59.80 L 33.15 59.87 C 24.79 66.87 20.04 77.27 20.22 88.17 C 20.22 96.58 24.80 103.57 30.64 110.37 C 35.00 132.06 57.80 147.23 79.92 143.80 C 85.36 142.98 90.57 141.06 95.23 138.15 C 102.08 141.11 109.62 142.09 117.00 141.00 C 131.40 138.82 143.04 128.15 146.47 114.00 C 153.90 106.64 158.24 97.75 158.24 88.17 Z" fill="#ffffff" fill-rule="nonzero" group-id="1" node-id="25" stroke="#040000" stroke-linecap="butt" stroke-width="4.03" target-height="119.76713" target-width="138.02" target-x="20.22" target-y="24.469902"></path><path d="M 127.30 63.60 C 121.70 53.88 113.20 47.18 102.17 44.81 C 98.39 44.04 94.55 43.59 90.69 43.47 L 88.94 43.47 L 88.78 43.47 L 87.03 43.47 C 83.18 43.59 79.34 44.04 75.56 44.81 C 64.53 47.18 56.00 53.88 50.42 63.60 C 44.00 74.76 42.92 86.21 48.07 89.18 C 51.07 90.88 55.36 89.43 59.73 85.78 L 59.73 97.00 C 59.84 103.00 62.42 108.70 66.86 112.74 C 70.66 116.18 75.19 118.70 80.12 120.11 C 85.80 121.96 91.93 121.96 97.61 120.11 C 102.53 118.70 107.07 116.18 110.86 112.74 C 115.31 108.70 117.89 103.01 118.00 97.00 L 118.00 85.78 C 122.38 89.43 126.72 90.88 129.67 89.18 C 134.80 86.21 133.75 74.76 127.30 63.60 Z" fill="#040000" fill-rule="nonzero" group-id="1" node-id="27" stroke="none" target-height="78.03125" target-width="88.10316" target-x="44.815132" target-y="43.47"></path><path d="M 114.72 38.64 C 113.45 38.64 112.20 38.96 111.09 39.57 C 107.68 35.57 101.88 33.03 95.28 33.03 C 86.45 33.00 79.00 37.69 76.92 44.00 C 74.75 43.01 72.39 42.51 70.00 42.53 C 66.63 42.48 63.34 43.54 60.62 45.53 C 57.93 42.20 53.10 41.57 49.65 44.10 C 46.20 46.64 45.36 51.44 47.74 55.00 C 50.12 58.56 54.88 59.61 58.54 57.39 C 60.81 60.39 65.09 62.39 70.00 62.39 C 74.91 62.39 79.00 60.47 81.27 57.60 C 85.23 60.78 90.19 62.48 95.27 62.39 C 100.71 62.51 106.00 60.56 110.05 56.93 C 111.39 57.94 113.03 58.49 114.71 58.50 C 119.47 58.50 123.34 54.06 123.34 48.57 C 123.34 43.08 119.48 38.64 114.72 38.64 Z" fill="#ffffff" fill-rule="nonzero" group-id="1" node-id="29" stroke="none" target-height="29.36" target-width="76.92705" target-x="46.41295" target-y="33.03"></path><path d="M 79.84 77.85 C 79.84 80.47 77.72 82.59 75.10 82.59 C 72.48 82.59 70.36 80.47 70.36 77.85 C 70.36 75.23 72.48 73.11 75.10 73.11 C 77.72 73.11 79.84 75.23 79.84 77.85 Z" fill="#020202" fill-rule="nonzero" group-id="1" node-id="31" stroke="none" target-height="9.479996" target-width="9.479996" target-x="70.36" target-y="73.11"></path><path d="M 71.20 142.98 L 76.84 142.98 L 76.84 163.19 L 71.20 163.19 Z" fill="#020202" fill-rule="nonzero" group-id="1" node-id="33" stroke="none" target-height="20.210007" target-width="5.6399994" target-x="71.2" target-y="142.98"></path><path d="M 101.62 142.56 L 107.26 142.56 L 107.26 163.19 L 101.62 163.19 Z" fill="#020202" fill-rule="nonzero" group-id="1" node-id="35" stroke="none" target-height="20.630005" target-width="5.6399994" target-x="101.62" target-y="142.56"></path><path d="M 77.18 163.06 C 76.20 162.63 75.14 162.38 74.07 162.32 L 74.00 162.32 C 72.92 162.38 71.87 162.63 70.88 163.06 C 69.16 163.84 67.76 165.19 66.94 166.89 C 66.85 167.07 66.86 167.27 66.97 167.44 C 67.07 167.61 67.25 167.71 67.45 167.71 L 80.65 167.71 C 80.85 167.71 81.03 167.61 81.13 167.44 C 81.24 167.27 81.25 167.07 81.16 166.89 C 80.32 165.19 78.91 163.83 77.18 163.06 Z" fill="#020202" fill-rule="nonzero" group-id="1" node-id="37" stroke="none" target-height="5.3899994" target-width="14.220001" target-x="66.94" target-y="162.32"></path><path d="M 107.60 163.06 C 106.62 162.63 105.56 162.38 104.49 162.32 L 104.39 162.32 C 103.31 162.38 102.26 162.63 101.27 163.06 C 99.55 163.83 98.15 165.19 97.33 166.89 C 97.24 167.07 97.25 167.27 97.36 167.44 C 97.46 167.61 97.64 167.71 97.84 167.71 L 111.00 167.71 C 111.20 167.71 111.38 167.61 111.48 167.44 C 111.59 167.27 111.60 167.07 111.51 166.89 C 110.69 165.20 109.31 163.84 107.60 163.06 Z" fill="#020202" fill-rule="nonzero" group-id="1" node-id="39" stroke="none" target-height="5.3899994" target-width="14.18" target-x="97.33" target-y="162.32"></path><path d="M 112.18 82.22 L 100.58 71.00 C 99.87 70.31 98.82 70.12 97.91 70.50 C 97.00 70.89 96.41 71.78 96.41 72.77 L 96.41 95.17 C 96.41 96.16 97.00 97.05 97.91 97.44 C 98.82 97.82 99.87 97.63 100.58 96.94 L 112.18 85.75 C 112.66 85.29 112.93 84.65 112.93 83.98 C 112.93 83.32 112.66 82.68 112.18 82.22 Z" fill="#fffefd" fill-rule="nonzero" group-id="1" node-id="41" stroke="none" target-height="27.29644" target-width="16.520798" target-x="96.41" target-y="70.321785"></path><path d="M 97.78 78.00 C 97.78 78.00 73.46 76.29 65.54 102.00 C 65.49 102.17 65.58 102.35 65.74 102.42 C 65.90 102.50 66.09 102.44 66.19 102.29 C 69.41 96.77 78.08 86.84 97.78 89.84 Z" fill="#fffefd" fill-rule="nonzero" group-id="1" node-id="43" stroke="none" target-height="24.440369" target-width="32.239998" target-x="65.54" target-y="78"></path><path d="M 177.46 89.23 C 177.46 137.96 137.96 177.46 89.23 177.46 C 40.50 177.46 1.00 137.96 1.00 89.23 C 1.00 40.50 40.50 1.00 89.23 1.00 C 137.96 1.00 177.46 40.50 177.46 89.23 Z" fill="none" group-id="1" node-id="45" stroke="#000000" stroke-linecap="butt" stroke-width="2" target-height="176.46" target-width="176.46" target-x="1" target-y="1"></path></g></svg>